# xmcd
#
# Track frame offsets:
#	150
#	21536
#	43776
#	62597
#	81150
#	100183
#	119512
#	136872
#	159733
#	178125
#	201880
#	219753
#	233749
#	252506
#	273406
#	281908
#	305447
#	322080
#	337005
#
# Disc length: 4722 seconds
#
# Revision: 0
# Processed by: cddbd v1.5.1PL0 Copyright (c) Steve Scherf et al.
# Submitted via: dBpowerAMP V4.0
#
DISCID=24127013
DTITLE=fata morgana - armata
DYEAR=2005
DGENRE=Ethnic
TTITLE0=guta
TTITLE1=liviupustiu
TTITLE2=cristiana
TTITLE3=costi
TTITLE4=guta
TTITLE5=guta
TTITLE6=adrian
TTITLE7=adrian
TTITLE8=coste
TTITLE9=el tempo
TTITLE10=cucu
TTITLE11=fata morgana de maine sunt civil
TTITLE12=fata morgana nu stiu ce sa intamplat
TTITLE13=fata morgana of mama
TTITLE14=fata morgana doamnei dulce libertatea
TTITLE15=adrian&fata morgana
TTITLE16=etno nu ma lasa
TTITLE17=radu ile s-am sa cant
TTITLE18=cucu
EXTD=
EXTT0=
EXTT1=
EXTT2=
EXTT3=
EXTT4=
EXTT5=
EXTT6=
EXTT7=
EXTT8=
EXTT9=
EXTT10=
EXTT11=
EXTT12=
EXTT13=
EXTT14=
EXTT15=
EXTT16=
EXTT17=
EXTT18=
PLAYORDER=
